<?xml version="1.0" encoding="UTF-8"?>
<svg width="232px" height="78px" viewBox="0 0 232 78" version="1.1" xmlns="http://www.w3.org/2000/svg" xmlns:xlink="http://www.w3.org/1999/xlink">
    <!-- Generator: Sketch 49.3 (51167) - http://www.bohemiancoding.com/sketch -->
    <title>Group 4</title>
    <desc>Created with Sketch.</desc>
    <defs></defs>
    <g id="Page-1" stroke="none" stroke-width="1" fill="none" fill-rule="evenodd">
        <g id="Group-4" transform="translate(0.000000, -1.000000)">
            <g>
                <path d="M87.356,62.6357 C88.409,61.6277 89.68,61.1377 91.244,61.1377 C92.828,61.1377 94.086,61.6277 95.09,62.6357 C96.109,63.6077 96.627,64.9597 96.627,66.6527 C96.627,68.3457 96.109,69.6977 95.087,70.6717 C94.086,71.6777 92.828,72.1667 91.244,72.1667 C89.68,72.1667 88.409,71.6777 87.358,70.6717 C86.365,69.6777 85.862,68.3267 85.862,66.6527 C85.862,64.9787 86.365,63.6277 87.356,62.6357 M92.568,78.1367 C95.463,78.1367 97.862,77.0557 99.904,74.8337 C101.925,72.6457 102.95,69.8927 102.95,66.6527 C102.95,63.4007 101.954,60.7377 99.904,58.5107 C97.86,56.2937 95.392,55.1687 92.568,55.1687 C89.777,55.1687 87.605,56.0557 86.112,57.8047 L85.862,58.0977 L85.862,46.9767 L79.539,46.9767 L79.539,77.5217 L85.862,77.5217 L85.862,75.2077 L86.112,75.4997 C87.605,77.2497 89.777,78.1367 92.568,78.1367" id="Fill-74" fill="#201838"></path>
                <polygon id="Fill-75" fill="#201838" points="106.979 77.521 113.303 77.521 113.303 55.783 106.979 55.783"></polygon>
                <path d="M112.8159,47.0693 C112.1009,46.3333 111.1589,45.9253 110.1609,45.9183 L110.1349,45.9183 C109.1269,45.9183 108.1649,46.3253 107.4239,47.0683 C105.9359,48.5563 105.9359,50.9233 107.4239,52.4583 C108.9579,53.9483 111.3249,53.9473 112.8149,52.4583 C113.5639,51.7093 113.9719,50.7363 113.9639,49.7183 C113.9569,48.7213 113.5489,47.7813 112.8159,47.0693" id="Fill-76" fill="#201838"></path>
                <path d="M119.9897,76.3603 C121.5627,77.5563 124.4187,77.9513 128.4817,77.5353 L128.4817,71.8243 C126.5047,71.9233 125.1387,71.8453 124.4567,71.1983 C124.1157,70.8753 123.9497,70.4123 123.9497,69.7823 L123.9497,61.8393 L128.4817,61.8393 L128.4817,55.7833 L123.9497,55.7833 L123.9497,49.6163 L117.6227,49.6163 L117.6227,69.7823 C117.6227,72.9593 118.3967,75.1103 119.9897,76.3603" id="Fill-77" fill="#201838"></path>
                <path d="M141.416,63.3999 C142.8,62.5819 144.265,62.2959 145.886,62.5249 L145.886,55.3409 C142.79,55.3909 140.312,57.0509 139.552,59.5999 L139.274,60.5299 L139.274,55.7839 L132.954,55.7839 L132.954,77.5219 L139.274,77.5219 L139.274,67.7119 C139.274,65.6789 139.995,64.2279 141.416,63.3999" id="Fill-78" fill="#201838"></path>
                <path d="M155.6162,62.6352 C156.6012,61.6422 157.9092,61.1382 159.5002,61.1382 C161.0922,61.1382 162.3992,61.6422 163.3862,62.6362 C164.3792,63.6222 164.8832,64.9742 164.8832,66.6532 C164.8832,68.3322 164.3792,69.6832 163.3852,70.6702 C162.3992,71.6632 161.0922,72.1672 159.5002,72.1672 C157.9092,72.1672 156.6012,71.6632 155.6152,70.6692 C154.6222,69.6832 154.1182,68.3322 154.1182,66.6532 C154.1182,64.9742 154.6222,63.6222 155.6162,62.6352 M150.8372,74.8332 C152.8822,77.0562 155.2832,78.1362 158.1772,78.1362 C160.9682,78.1362 163.1392,77.2492 164.6342,75.5002 L164.8832,75.2072 L164.8832,77.5212 L171.2102,77.5212 L171.2102,55.7832 L164.8832,55.7832 L164.8832,58.0972 L164.6342,57.8052 C163.1392,56.0562 160.9682,55.1692 158.1772,55.1692 C155.3542,55.1692 152.8852,56.2932 150.8372,58.5102 C148.7872,60.7452 147.7912,63.4082 147.7912,66.6532 C147.7912,69.8852 148.8152,72.6372 150.8372,74.8332" id="Fill-79" fill="#201838"></path>
                <path d="M177.4912,76.3598 C179.0622,77.5568 181.9172,77.9508 185.9832,77.5348 L185.9832,71.8248 C183.9992,71.9228 182.6352,71.8438 181.9512,71.1968 C181.6102,70.8738 181.4442,70.4108 181.4442,69.7828 L181.4442,61.8388 L185.9832,61.8388 L185.9832,55.7838 L181.4442,55.7838 L181.4442,49.6168 L175.1242,49.6168 L175.1242,69.7828 C175.1242,72.9648 175.8982,75.1168 177.4912,76.3598" id="Fill-80" fill="#201838"></path>
                <path d="M195.0088,64.5049 L195.0598,64.3249 C195.7428,61.9129 197.3578,60.7409 199.9928,60.7409 C202.5448,60.7409 204.1178,61.9129 204.8018,64.3249 L204.8528,64.5049 L195.0088,64.5049 Z M207.9118,58.4749 C205.8188,56.2499 203.2438,55.1689 200.0398,55.1689 C196.6438,55.1689 193.8318,56.2809 191.6858,58.4749 C189.5468,60.6509 188.4628,63.4019 188.4628,66.6529 C188.4628,69.9419 189.5628,72.7079 191.7308,74.8769 C193.9628,77.0699 196.8388,78.1369 200.5228,78.1369 C204.6498,78.1369 207.8088,76.6749 209.9168,73.7909 L204.8708,70.8799 C203.8238,71.9669 202.3938,72.5179 200.6158,72.5179 C197.7798,72.5179 195.9558,71.4489 195.1958,69.3399 L195.1268,69.1509 L210.8488,69.1509 C211.0078,68.3389 211.0878,67.4989 211.0878,66.6529 C211.0878,63.3709 210.0198,60.6199 207.9118,58.4749 Z" id="Fill-81" fill="#201838"></path>
                <path d="M222.0215,78.1367 C224.5465,78.1367 226.7125,77.5367 228.4595,76.3547 C230.1685,75.1587 231.0375,73.3777 231.0375,71.0597 C231.0725,67.4167 228.8195,65.1577 224.1485,64.1517 L224.1415,64.1497 C222.0295,63.5727 220.2065,63.0747 220.2065,62.0747 C220.2065,61.1587 220.8765,60.6947 222.2015,60.6947 C223.4595,60.6947 224.4705,61.3297 225.2075,62.5847 L230.5915,59.6837 C228.8245,56.8127 225.7755,55.1687 222.2015,55.1687 C219.7865,55.1687 217.7405,55.7957 216.1205,57.0327 C214.4975,58.2997 213.7075,60.0047 213.7075,62.2457 C213.7075,66.4747 217.1935,68.0017 220.6025,68.9377 C222.6745,69.4557 224.5385,70.0057 224.5385,71.0127 C224.5385,72.0257 223.7145,72.5177 222.0215,72.5177 C220.1355,72.5177 218.8175,71.6447 218.1995,69.9897 L212.7385,73.0947 C214.4015,76.4407 217.5235,78.1367 222.0215,78.1367" id="Fill-82" fill="#201838"></path>
                <g id="Fill-71">
                    <polygon fill="#653EEF" points="17.1826754 16.56075 0.536096491 46.78275 9.80109649 51.60375 17.1826754 46.78275 29.7626754 39.39825 33.8307456 16.56075"></polygon>
                    <polygon id="Fill-72" fill="#9A56FA" points="33.83 46.78275 25.5059649 61.89375 33.83 77.00325 50.4765789 77.00325 47.7163158 53.92425"></polygon>
                    <polygon id="Fill-73" fill="#653EEF" points="58.8001667 1.4502 42.1535877 31.6707 43.7894649 41.1282 50.4761316 46.7832 69.0061316 31.6737 75.4467456 1.4442"></polygon>
                    <polygon id="Fill-83" fill="#9A56FA" points="17.1826754 46.78275 0.536096491 46.78275 8.85864035 61.89375 17.1826754 61.89375 25.5067105 61.89375 25.5067105 49.11675"></polygon>
                    <polygon id="Fill-84" fill="#A9E9FF" points="25.5067105 31.6713 17.1826754 46.7823 25.5067105 61.8933 33.8307456 46.7823 32.1710088 36.9288"></polygon>
                    <polygon id="Fill-85" fill="#7FDEFF" points="33.83 16.56075 25.5059649 31.67175 33.83 46.78275 41.0937719 42.11775 42.1540351 31.67175"></polygon>
                    <polygon id="Fill-86" fill="#66D5FF" points="42.1534386 31.6713 33.8294035 46.7823 42.1534386 61.8933 49.6065965 55.5378 50.4774737 46.7823"></polygon>
                    <polygon id="Fill-87" fill="#46C5FF" points="50.4767281 46.78275 42.152693 61.89375 50.4767281 77.00325 58.8007632 61.89375 58.1192719 50.59725"></polygon>
                    <polygon id="Fill-88" fill="#37BAFF" points="58.8001667 31.6713 50.4761316 46.7823 58.8001667 61.8933 67.1242018 46.7823 65.8134123 37.4238"></polygon>
                    <polygon id="Fill-89" fill="#38ABFF" points="67.1234561 16.56225 58.7994211 31.67325 67.1234561 46.78425 75.4474912 31.67325 74.4081053 21.94425"></polygon>
                    <polygon id="Fill-90" fill="#0E9AF2" points="75.4467456 1.4517 67.1227105 16.5627 71.8558684 25.1562 75.4467456 31.6737 83.7707807 16.5627"></polygon>
                </g>
            </g>
        </g>
    </g>
</svg>